<?xml version="1.0" encoding="UTF-8" standalone="no"?>
<!-- Created with matplotlib (https://matplotlib.org/) -->

<svg
   xmlns:dc="http://purl.org/dc/elements/1.1/"
   xmlns:cc="http://creativecommons.org/ns#"
   xmlns:rdf="http://www.w3.org/1999/02/22-rdf-syntax-ns#"
   xmlns:svg="http://www.w3.org/2000/svg"
   xmlns="http://www.w3.org/2000/svg"
   xmlns:xlink="http://www.w3.org/1999/xlink"
   xmlns:sodipodi="http://sodipodi.sourceforge.net/DTD/sodipodi-0.dtd"
   xmlns:inkscape="http://www.inkscape.org/namespaces/inkscape"
   height="2.731889in"
   version="1.1"
   viewBox="0 0 335.79999 196.69601"
   width="4.6638889in"
   id="svg180"
   sodipodi:docname="nnreal.svg"
   inkscape:version="0.92.2 5c3e80d, 2017-08-06">
  <metadata
     id="metadata184">
    <rdf:RDF>
      <cc:Work
         rdf:about="">
        <dc:format>image/svg+xml</dc:format>
        <dc:type
           rdf:resource="http://purl.org/dc/dcmitype/StillImage" />
        <dc:title></dc:title>
      </cc:Work>
    </rdf:RDF>
  </metadata>
  <sodipodi:namedview
     pagecolor="#ffffff"
     bordercolor="#666666"
     borderopacity="1"
     objecttolerance="10"
     gridtolerance="10"
     guidetolerance="10"
     inkscape:pageopacity="0"
     inkscape:pageshadow="2"
     inkscape:window-width="1251"
     inkscape:window-height="743"
     id="namedview182"
     showgrid="false"
     inkscape:zoom="0.43457604"
     inkscape:cx="278.26158"
     inkscape:cy="38.991999"
     inkscape:window-x="49"
     inkscape:window-y="0"
     inkscape:window-maximized="0"
     inkscape:current-layer="figure_1"
     units="in"
     fit-margin-top="0"
     fit-margin-left="0"
     fit-margin-right="0"
     fit-margin-bottom="0" />
  <defs
     id="defs4"
     style="stroke-linecap:butt;stroke-linejoin:round">
    <style
       type="text/css"
       id="style2">
*{stroke-linecap:butt;stroke-linejoin:round;}
  </style>
  </defs>
  <g
     id="figure_1"
     style="stroke-linecap:butt;stroke-linejoin:round"
     transform="translate(-127.3,-188.212)">
    <g
       id="axes_1"
       style="stroke-linecap:butt;stroke-linejoin:round">
      <g
         id="line2d_1"
         style="stroke-linecap:butt;stroke-linejoin:round">
        <path
           clip-path="url(#pa9b3d24392)"
           d="M 161.28,221.328 H 295.2"
           style="fill:none;stroke:#000000;stroke-width:1.5;stroke-linecap:square;stroke-linejoin:round"
           id="path9"
           inkscape:connector-curvature="0" />
      </g>
      <g
         id="line2d_2"
         style="stroke-linecap:butt;stroke-linejoin:round">
        <path
           clip-path="url(#pa9b3d24392)"
           d="M 161.28,221.328 295.2,351.792"
           style="fill:none;stroke:#000000;stroke-width:1.5;stroke-linecap:square;stroke-linejoin:round"
           id="path12"
           inkscape:connector-curvature="0" />
      </g>
      <g
         id="line2d_3"
         style="stroke-linecap:butt;stroke-linejoin:round">
        <path
           clip-path="url(#pa9b3d24392)"
           d="M 161.28,351.792 295.2,221.328"
           style="fill:none;stroke:#000000;stroke-width:1.5;stroke-linecap:square;stroke-linejoin:round"
           id="path15"
           inkscape:connector-curvature="0" />
      </g>
      <g
         id="line2d_4"
         style="stroke-linecap:butt;stroke-linejoin:round">
        <path
           clip-path="url(#pa9b3d24392)"
           d="M 161.28,351.792 H 295.2"
           style="fill:none;stroke:#000000;stroke-width:1.5;stroke-linecap:square;stroke-linejoin:round"
           id="path18"
           inkscape:connector-curvature="0" />
      </g>
      <g
         id="line2d_5"
         style="stroke-linecap:butt;stroke-linejoin:round">
        <path
           clip-path="url(#pa9b3d24392)"
           d="M 295.2,221.328 429.12,286.56"
           style="fill:none;stroke:#000000;stroke-width:1.5;stroke-linecap:square;stroke-linejoin:round"
           id="path21"
           inkscape:connector-curvature="0" />
      </g>
      <g
         id="line2d_6"
         style="stroke-linecap:butt;stroke-linejoin:round">
        <path
           clip-path="url(#pa9b3d24392)"
           d="M 295.2,351.792 429.12,286.56"
           style="fill:none;stroke:#000000;stroke-width:1.5;stroke-linecap:square;stroke-linejoin:round"
           id="path24"
           inkscape:connector-curvature="0" />
      </g>
      <g
         id="text_1"
         transform="translate(-22.423729,11.694915)"
         style="stroke-linecap:butt;stroke-linejoin:round"
         inkscape:transform-center-x="-5.4915254"
         inkscape:transform-center-y="-20.745763">
        <!-- $W_1^{1,1}$ -->
        <defs
           id="defs30">
          <path
             d="m 9.625,72.90625 h 9.5625 l 3.515625,-62.015625 27.5,62.015625 H 61.1875 L 64.796875,10.890625 92,72.90625 h 10 L 69.578125,0 H 57.171875 L 53.8125,60.796875 26.515625,0 h -12.40625 z"
             id="DejaVuSans-Oblique-87"
             inkscape:connector-curvature="0"
             style="stroke-linecap:butt;stroke-linejoin:round" />
          <path
             d="m 12.40625,8.296875 h 16.109375 v 55.625 L 10.984375,60.40625 v 8.984375 l 17.4375,3.515625 H 38.28125 V 8.296875 H 54.390625 V 0 H 12.40625 Z"
             id="DejaVuSans-49"
             inkscape:connector-curvature="0"
             style="stroke-linecap:butt;stroke-linejoin:round" />
          <path
             d="M 11.71875,12.40625 H 22.015625 V 4 l -8,-15.625 H 7.71875 l 4,15.625 z"
             id="DejaVuSans-44"
             inkscape:connector-curvature="0"
             style="stroke-linecap:butt;stroke-linejoin:round" />
        </defs>
        <g
           transform="matrix(0.1,0,0,-0.1,228.24,221.328)"
           id="g42"
           style="stroke-linecap:butt;stroke-linejoin:round">
          <use
             transform="translate(0,0.6375)"
             xlink:href="#DejaVuSans-Oblique-87"
             id="use32"
             style="stroke-linecap:butt;stroke-linejoin:round"
             x="0"
             y="0"
             width="100%"
             height="100%" />
          <use
             transform="matrix(0.7,0,0,0.7,105.89372,44.965625)"
             xlink:href="#DejaVuSans-49"
             id="use34"
             style="stroke-linecap:butt;stroke-linejoin:round"
             x="0"
             y="0"
             width="100%"
             height="100%" />
          <use
             transform="matrix(0.7,0,0,0.7,150.42986,44.965625)"
             xlink:href="#DejaVuSans-44"
             id="use36"
             style="stroke-linecap:butt;stroke-linejoin:round"
             x="0"
             y="0"
             width="100%"
             height="100%" />
          <use
             transform="matrix(0.7,0,0,0.7,186.31853,44.965625)"
             xlink:href="#DejaVuSans-49"
             id="use38"
             style="stroke-linecap:butt;stroke-linejoin:round"
             x="0"
             y="0"
             width="100%"
             height="100%" />
          <use
             transform="matrix(0.7,0,0,0.7,98.876953,-26.70625)"
             xlink:href="#DejaVuSans-49"
             id="use40"
             style="stroke-linecap:butt;stroke-linejoin:round"
             x="0"
             y="0"
             width="100%"
             height="100%" />
        </g>
      </g>
      <g
         id="text_2"
         transform="translate(-48.20339,-8.5423731)"
         style="stroke-linecap:butt;stroke-linejoin:round">
        <!-- $W_1^{2,1}$ -->
        <defs
           id="defs46">
          <path
             d="M 19.1875,8.296875 H 53.609375 V 0 H 7.328125 v 8.296875 q 5.609375,5.8125 15.296875,15.59375 9.703125,9.796875 12.1875,12.640625 4.734375,5.3125 6.609375,9 1.890625,3.6875 1.890625,7.25 0,5.8125 -4.078125,9.46875 -4.078125,3.671875 -10.625,3.671875 -4.640625,0 -9.796875,-1.609375 -5.140625,-1.609375 -11,-4.890625 v 9.96875 Q 13.765625,71.78125 18.9375,73 q 5.1875,1.21875 9.484375,1.21875 11.328125,0 18.0625,-5.671875 6.734375,-5.65625 6.734375,-15.125 0,-4.5 -1.6875,-8.53125 Q 49.859375,40.875 45.40625,35.40625 44.1875,33.984375 37.640625,27.21875 31.109375,20.453125 19.1875,8.296875 Z"
             id="DejaVuSans-50"
             inkscape:connector-curvature="0"
             style="stroke-linecap:butt;stroke-linejoin:round" />
        </defs>
        <g
           transform="matrix(0.1,0,0,-0.1,216.03661,274.96678)"
           id="g58"
           style="stroke-linecap:butt;stroke-linejoin:round">
          <use
             transform="translate(0,0.71875)"
             xlink:href="#DejaVuSans-Oblique-87"
             id="use48"
             style="stroke-linecap:butt;stroke-linejoin:round"
             x="0"
             y="0"
             width="100%"
             height="100%" />
          <use
             transform="matrix(0.7,0,0,0.7,105.89372,45.046875)"
             xlink:href="#DejaVuSans-50"
             id="use50"
             style="stroke-linecap:butt;stroke-linejoin:round"
             x="0"
             y="0"
             width="100%"
             height="100%" />
          <use
             transform="matrix(0.7,0,0,0.7,150.42986,45.046875)"
             xlink:href="#DejaVuSans-44"
             id="use52"
             style="stroke-linecap:butt;stroke-linejoin:round"
             x="0"
             y="0"
             width="100%"
             height="100%" />
          <use
             transform="matrix(0.7,0,0,0.7,186.31853,45.046875)"
             xlink:href="#DejaVuSans-49"
             id="use54"
             style="stroke-linecap:butt;stroke-linejoin:round"
             x="0"
             y="0"
             width="100%"
             height="100%" />
          <use
             transform="matrix(0.7,0,0,0.7,98.876953,-26.625)"
             xlink:href="#DejaVuSans-49"
             id="use56"
             style="stroke-linecap:butt;stroke-linejoin:round"
             x="0"
             y="0"
             width="100%"
             height="100%" />
        </g>
      </g>
      <g
         id="text_3"
         transform="translate(-60.025194,22.237791)"
         style="stroke-linecap:butt;stroke-linejoin:round">
        <!-- $W_1^{1,2}$ -->
        <g
           transform="matrix(0.1,0,0,-0.1,228.24,288.06)"
           id="g71"
           style="stroke-linecap:butt;stroke-linejoin:round">
          <use
             transform="translate(0,0.71875)"
             xlink:href="#DejaVuSans-Oblique-87"
             id="use61"
             style="stroke-linecap:butt;stroke-linejoin:round"
             x="0"
             y="0"
             width="100%"
             height="100%" />
          <use
             transform="matrix(0.7,0,0,0.7,105.89372,45.046875)"
             xlink:href="#DejaVuSans-49"
             id="use63"
             style="stroke-linecap:butt;stroke-linejoin:round"
             x="0"
             y="0"
             width="100%"
             height="100%" />
          <use
             transform="matrix(0.7,0,0,0.7,150.42986,45.046875)"
             xlink:href="#DejaVuSans-44"
             id="use65"
             style="stroke-linecap:butt;stroke-linejoin:round"
             x="0"
             y="0"
             width="100%"
             height="100%" />
          <use
             transform="matrix(0.7,0,0,0.7,186.31853,45.046875)"
             xlink:href="#DejaVuSans-50"
             id="use67"
             style="stroke-linecap:butt;stroke-linejoin:round"
             x="0"
             y="0"
             width="100%"
             height="100%" />
          <use
             transform="matrix(0.7,0,0,0.7,98.876953,-26.625)"
             xlink:href="#DejaVuSans-49"
             id="use69"
             style="stroke-linecap:butt;stroke-linejoin:round"
             x="0"
             y="0"
             width="100%"
             height="100%" />
        </g>
      </g>
      <g
         id="text_4"
         transform="translate(-22.576271,13.423729)"
         style="stroke-linecap:butt;stroke-linejoin:round">
        <!-- $W_1^{2,2}$ -->
        <g
           transform="matrix(0.1,0,0,-0.1,231.90102,332.87675)"
           id="g84"
           style="stroke-linecap:butt;stroke-linejoin:round">
          <use
             transform="translate(0,0.71875)"
             xlink:href="#DejaVuSans-Oblique-87"
             id="use74"
             style="stroke-linecap:butt;stroke-linejoin:round"
             x="0"
             y="0"
             width="100%"
             height="100%" />
          <use
             transform="matrix(0.7,0,0,0.7,105.89372,45.046875)"
             xlink:href="#DejaVuSans-50"
             id="use76"
             style="stroke-linecap:butt;stroke-linejoin:round"
             x="0"
             y="0"
             width="100%"
             height="100%" />
          <use
             transform="matrix(0.7,0,0,0.7,150.42986,45.046875)"
             xlink:href="#DejaVuSans-44"
             id="use78"
             style="stroke-linecap:butt;stroke-linejoin:round"
             x="0"
             y="0"
             width="100%"
             height="100%" />
          <use
             transform="matrix(0.7,0,0,0.7,186.31853,45.046875)"
             xlink:href="#DejaVuSans-50"
             id="use80"
             style="stroke-linecap:butt;stroke-linejoin:round"
             x="0"
             y="0"
             width="100%"
             height="100%" />
          <use
             transform="matrix(0.7,0,0,0.7,98.876953,-26.625)"
             xlink:href="#DejaVuSans-49"
             id="use82"
             style="stroke-linecap:butt;stroke-linejoin:round"
             x="0"
             y="0"
             width="100%"
             height="100%" />
        </g>
      </g>
      <g
         id="text_5"
         transform="translate(-3.0508475,-14.033898)"
         style="stroke-linecap:butt;stroke-linejoin:round">
        <!-- $W_2^{1,1}$ -->
        <g
           transform="matrix(0.1,0,0,-0.1,362.16,253.944)"
           id="g97"
           style="stroke-linecap:butt;stroke-linejoin:round">
          <use
             transform="translate(0,0.71875)"
             xlink:href="#DejaVuSans-Oblique-87"
             id="use87"
             style="stroke-linecap:butt;stroke-linejoin:round"
             x="0"
             y="0"
             width="100%"
             height="100%" />
          <use
             transform="matrix(0.7,0,0,0.7,105.89372,45.965625)"
             xlink:href="#DejaVuSans-49"
             id="use89"
             style="stroke-linecap:butt;stroke-linejoin:round"
             x="0"
             y="0"
             width="100%"
             height="100%" />
          <use
             transform="matrix(0.7,0,0,0.7,150.42986,45.965625)"
             xlink:href="#DejaVuSans-44"
             id="use91"
             style="stroke-linecap:butt;stroke-linejoin:round"
             x="0"
             y="0"
             width="100%"
             height="100%" />
          <use
             transform="matrix(0.7,0,0,0.7,186.31853,45.965625)"
             xlink:href="#DejaVuSans-49"
             id="use93"
             style="stroke-linecap:butt;stroke-linejoin:round"
             x="0"
             y="0"
             width="100%"
             height="100%" />
          <use
             transform="matrix(0.7,0,0,0.7,98.876953,-26.625)"
             xlink:href="#DejaVuSans-50"
             id="use95"
             style="stroke-linecap:butt;stroke-linejoin:round"
             x="0"
             y="0"
             width="100%"
             height="100%" />
        </g>
      </g>
      <g
         id="text_6"
         transform="translate(-1.72275e-7,16.474576)"
         style="stroke-linecap:butt;stroke-linejoin:round">
        <!-- $W_2^{2,1}$ -->
        <g
           transform="matrix(0.1,0,0,-0.1,362.16,319.176)"
           id="g110"
           style="stroke-linecap:butt;stroke-linejoin:round">
          <use
             transform="translate(0,0.8)"
             xlink:href="#DejaVuSans-Oblique-87"
             id="use100"
             style="stroke-linecap:butt;stroke-linejoin:round"
             x="0"
             y="0"
             width="100%"
             height="100%" />
          <use
             transform="matrix(0.7,0,0,0.7,180.89372,46.046875)"
             xlink:href="#DejaVuSans-50"
             id="use102"
             style="stroke-linecap:butt;stroke-linejoin:round"
             x="0"
             y="0"
             width="100%"
             height="100%" />
          <use
             transform="matrix(0.7,0,0,0.7,150.42986,46.046875)"
             xlink:href="#DejaVuSans-44"
             id="use104"
             style="stroke-linecap:butt;stroke-linejoin:round"
             x="0"
             y="0"
             width="100%"
             height="100%" />
          <use
             transform="matrix(0.7,0,0,0.7,111.31853,46.046875)"
             xlink:href="#DejaVuSans-49"
             id="use106"
             style="stroke-linecap:butt;stroke-linejoin:round"
             x="0"
             y="0"
             width="100%"
             height="100%" />
          <use
             transform="matrix(0.7,0,0,0.7,98.876953,-26.54375)"
             xlink:href="#DejaVuSans-50"
             id="use108"
             style="stroke-linecap:butt;stroke-linejoin:round"
             x="0"
             y="0"
             width="100%"
             height="100%" />
        </g>
      </g>
      <g
         id="patch_2"
         style="stroke-linecap:butt;stroke-linejoin:round">
        <path
           clip-path="url(#pa9b3d24392)"
           d="m 161.28,253.944 c 8.879,0 17.39553,-3.43663 23.67393,-9.55301 6.27841,-6.11637 9.80607,-14.41313 9.80607,-23.06299 0,-8.64986 -3.52766,-16.94662 -9.80607,-23.063 -6.2784,-6.11637 -14.79493,-9.553 -23.67393,-9.553 -8.879,0 -17.39553,3.43663 -23.67394,9.553 -6.2784,6.11638 -9.80606,14.41314 -9.80606,23.063 0,8.64986 3.52766,16.94662 9.80606,23.06299 6.27841,6.11638 14.79494,9.55301 23.67394,9.55301 z"
           style="fill:#ffffff;stroke:#000000;stroke-linecap:butt;stroke-linejoin:miter"
           id="path113"
           inkscape:connector-curvature="0" />
      </g>
      <g
         id="patch_3"
         style="stroke-linecap:butt;stroke-linejoin:round">
        <path
           clip-path="url(#pa9b3d24392)"
           d="m 161.28,384.408 c 8.879,0 17.39553,-3.43663 23.67393,-9.55301 6.27841,-6.11637 9.80607,-14.41313 9.80607,-23.06299 0,-8.64986 -3.52766,-16.94662 -9.80607,-23.063 -6.2784,-6.11637 -14.79493,-9.553 -23.67393,-9.553 -8.879,0 -17.39553,3.43663 -23.67394,9.553 -6.2784,6.11638 -9.80606,14.41314 -9.80606,23.063 0,8.64986 3.52766,16.94662 9.80606,23.06299 6.27841,6.11638 14.79494,9.55301 23.67394,9.55301 z"
           style="fill:#ffffff;stroke:#000000;stroke-linecap:butt;stroke-linejoin:miter"
           id="path116"
           inkscape:connector-curvature="0" />
      </g>
      <g
         id="patch_4"
         style="stroke-linecap:butt;stroke-linejoin:round">
        <path
           clip-path="url(#pa9b3d24392)"
           d="m 295.2,253.944 c 8.879,0 17.39553,-3.43663 23.67394,-9.55301 6.2784,-6.11637 9.80606,-14.41313 9.80606,-23.06299 0,-8.64986 -3.52766,-16.94662 -9.80606,-23.063 -6.27841,-6.11637 -14.79494,-9.553 -23.67394,-9.553 -8.879,0 -17.39553,3.43663 -23.67393,9.553 -6.27841,6.11638 -9.80607,14.41314 -9.80607,23.063 0,8.64986 3.52766,16.94662 9.80607,23.06299 6.2784,6.11638 14.79493,9.55301 23.67393,9.55301 z"
           style="fill:#ffffff;stroke:#000000;stroke-linecap:butt;stroke-linejoin:miter"
           id="path119"
           inkscape:connector-curvature="0" />
      </g>
      <g
         id="patch_5"
         style="stroke-linecap:butt;stroke-linejoin:round">
        <path
           clip-path="url(#pa9b3d24392)"
           d="m 295.2,384.408 c 8.879,0 17.39553,-3.43663 23.67394,-9.55301 6.2784,-6.11637 9.80606,-14.41313 9.80606,-23.06299 0,-8.64986 -3.52766,-16.94662 -9.80606,-23.063 -6.27841,-6.11637 -14.79494,-9.553 -23.67394,-9.553 -8.879,0 -17.39553,3.43663 -23.67393,9.553 -6.27841,6.11638 -9.80607,14.41314 -9.80607,23.063 0,8.64986 3.52766,16.94662 9.80607,23.06299 6.2784,6.11638 14.79493,9.55301 23.67393,9.55301 z"
           style="fill:#ffffff;stroke:#000000;stroke-linecap:butt;stroke-linejoin:miter"
           id="path122"
           inkscape:connector-curvature="0" />
      </g>
      <g
         id="patch_6"
         style="stroke-linecap:butt;stroke-linejoin:round">
        <path
           clip-path="url(#pa9b3d24392)"
           d="m 429.12,319.176 c 8.879,0 17.39553,-3.43663 23.67393,-9.55301 6.27841,-6.11637 9.80607,-14.41313 9.80607,-23.06299 0,-8.64986 -3.52766,-16.94662 -9.80607,-23.063 -6.2784,-6.11637 -14.79493,-9.553 -23.67393,-9.553 -8.879,0 -17.39553,3.43663 -23.67394,9.553 -6.2784,6.11638 -9.80606,14.41314 -9.80606,23.063 0,8.64986 3.52766,16.94662 9.80606,23.06299 6.27841,6.11638 14.79494,9.55301 23.67394,9.55301 z"
           style="fill:#ffffff;stroke:#000000;stroke-linecap:butt;stroke-linejoin:miter"
           id="path125"
           inkscape:connector-curvature="0" />
      </g>
      <g
         id="text_7"
         style="stroke-linecap:butt;stroke-linejoin:round">
        <!-- $x^1$ -->
        <defs
           id="defs129">
          <path
             d="M 60.015625,54.6875 34.90625,27.875 50.296875,0 h -10.3125 L 28.421875,21.6875 8.296875,0 H -2.59375 L 24.3125,28.8125 10.015625,54.6875 H 20.3125 l 10.5,-19.78125 18.3125,19.78125 z"
             id="DejaVuSans-Oblique-120"
             inkscape:connector-curvature="0"
             style="stroke-linecap:butt;stroke-linejoin:round" />
        </defs>
        <g
           transform="matrix(0.2,0,0,-0.2,150.18,226.84675)"
           id="g135"
           style="stroke-linecap:butt;stroke-linejoin:round">
          <use
             transform="translate(0,0.684375)"
             xlink:href="#DejaVuSans-Oblique-120"
             id="use131"
             style="stroke-linecap:butt;stroke-linejoin:round"
             x="0"
             y="0"
             width="100%"
             height="100%" />
          <use
             transform="matrix(0.7,0,0,0.7,63.645833,38.965625)"
             xlink:href="#DejaVuSans-49"
             id="use133"
             style="stroke-linecap:butt;stroke-linejoin:round"
             x="0"
             y="0"
             width="100%"
             height="100%" />
        </g>
      </g>
      <g
         id="text_8"
         style="stroke-linecap:butt;stroke-linejoin:round">
        <!-- $x^2$ -->
        <g
           transform="matrix(0.2,0,0,-0.2,150.18,357.31075)"
           id="g142"
           style="stroke-linecap:butt;stroke-linejoin:round">
          <use
             transform="translate(0,0.765625)"
             xlink:href="#DejaVuSans-Oblique-120"
             id="use138"
             style="stroke-linecap:butt;stroke-linejoin:round"
             x="0"
             y="0"
             width="100%"
             height="100%" />
          <use
             transform="matrix(0.7,0,0,0.7,63.645833,39.046875)"
             xlink:href="#DejaVuSans-50"
             id="use140"
             style="stroke-linecap:butt;stroke-linejoin:round"
             x="0"
             y="0"
             width="100%"
             height="100%" />
        </g>
      </g>
      <g
         id="text_9"
         style="stroke-linecap:butt;stroke-linejoin:round">
        <!-- $h^1$ -->
        <defs
           id="defs146">
          <path
             d="M 55.71875,33.015625 49.3125,0 h -9.03125 l 6.40625,32.671875 q 0.4375,2.296875 0.671875,4.046875 0.25,1.765625 0.25,2.78125 0,4.109375 -2.59375,6.390625 -2.578125,2.296875 -7.21875,2.296875 -7.234375,0 -12.53125,-4.890625 -5.296875,-4.875 -6.859375,-12.96875 L 12.5,0 H 3.515625 L 18.3125,75.984375 h 8.984375 l -5.8125,-29.890625 q 3.421875,4.59375 8.734375,7.25 Q 35.546875,56 41.40625,56 q 7.234375,0 11.203125,-3.90625 3.984375,-3.90625 3.984375,-10.984375 0,-1.75 -0.21875,-3.75 -0.21875,-2 -0.65625,-4.34375 z"
             id="DejaVuSans-Oblique-104"
             inkscape:connector-curvature="0"
             style="stroke-linecap:butt;stroke-linejoin:round" />
        </defs>
        <g
           transform="matrix(0.2,0,0,-0.2,283.3,226.84675)"
           id="g152"
           style="stroke-linecap:butt;stroke-linejoin:round">
          <use
             transform="translate(0,0.684375)"
             xlink:href="#DejaVuSans-Oblique-104"
             id="use148"
             style="stroke-linecap:butt;stroke-linejoin:round"
             x="0"
             y="0"
             width="100%"
             height="100%" />
          <use
             transform="matrix(0.7,0,0,0.7,70.826615,38.965625)"
             xlink:href="#DejaVuSans-49"
             id="use150"
             style="stroke-linecap:butt;stroke-linejoin:round"
             x="0"
             y="0"
             width="100%"
             height="100%" />
        </g>
      </g>
      <g
         id="text_10"
         style="stroke-linecap:butt;stroke-linejoin:round">
        <!-- $h^2$ -->
        <g
           transform="matrix(0.2,0,0,-0.2,283.3,357.31075)"
           id="g159"
           style="stroke-linecap:butt;stroke-linejoin:round">
          <use
             transform="translate(0,0.765625)"
             xlink:href="#DejaVuSans-Oblique-104"
             id="use155"
             style="stroke-linecap:butt;stroke-linejoin:round"
             x="0"
             y="0"
             width="100%"
             height="100%" />
          <use
             transform="matrix(0.7,0,0,0.7,70.826615,39.046875)"
             xlink:href="#DejaVuSans-50"
             id="use157"
             style="stroke-linecap:butt;stroke-linejoin:round"
             x="0"
             y="0"
             width="100%"
             height="100%" />
        </g>
      </g>
      <g
         id="text_11"
         style="stroke-linecap:butt;stroke-linejoin:round">
        <!-- $\hat{y}$ -->
        <defs
           id="defs164">
          <path
             d="m -28.609375,79.984375 h 7.21875 L -9.421875,61.625 H -16.21875 L -25,73.578125 -33.796875,61.625 h -6.78125 z M -25,56 Z"
             id="DejaVuSans-770"
             inkscape:connector-curvature="0"
             style="stroke-linecap:butt;stroke-linejoin:round" />
          <path
             d="m 24.8125,-5.078125 q -6.25,-10.5 -10.1875,-13.109375 -3.9375,-2.609375 -10.03125,-2.609375 h -7.078125 l 1.5,7.515625 h 5.1875 q 3.75,0 6.390625,2.046875 Q 13.234375,-9.1875 16.5,-3.21875 L 19.28125,2 7.171875,54.6875 h 9.53125 L 25.78125,12.796875 50.875,54.6875 h 9.421875 z"
             id="DejaVuSans-Oblique-121"
             inkscape:connector-curvature="0"
             style="stroke-linecap:butt;stroke-linejoin:round" />
        </defs>
        <g
           transform="matrix(0.2,0,0,-0.2,423.12,293.66)"
           id="g170"
           style="stroke-linecap:butt;stroke-linejoin:round">
          <use
             transform="translate(62.373047,12.015625)"
             xlink:href="#DejaVuSans-770"
             id="use166"
             style="stroke-linecap:butt;stroke-linejoin:round"
             x="0"
             y="0"
             width="100%"
             height="100%" />
          <use
             transform="translate(0,0.828125)"
             xlink:href="#DejaVuSans-Oblique-121"
             id="use168"
             style="stroke-linecap:butt;stroke-linejoin:round"
             x="0"
             y="0"
             width="100%"
             height="100%" />
        </g>
      </g>
    </g>
  </g>
  <defs
     id="defs178">
    <clipPath
       id="pa9b3d24392"
       style="stroke-linecap:butt;stroke-linejoin:round">
      <rect
         height="434.88"
         width="446.39999"
         x="72"
         y="69.120003"
         id="rect175"
         style="stroke-linecap:butt;stroke-linejoin:round" />
    </clipPath>
  </defs>
</svg>
